<?xml version="1.0" encoding="UTF-8" standalone="no"?>
<svg
   xmlns:dc="http://purl.org/dc/elements/1.1/"
   xmlns:cc="http://creativecommons.org/ns#"
   xmlns:rdf="http://www.w3.org/1999/02/22-rdf-syntax-ns#"
   xmlns:svg="http://www.w3.org/2000/svg"
   xmlns="http://www.w3.org/2000/svg"
   xmlns:sodipodi="http://sodipodi.sourceforge.net/DTD/sodipodi-0.dtd"
   xmlns:inkscape="http://www.inkscape.org/namespaces/inkscape"
   version="1.1"
   width="258px"
   height="240px"
   viewBox="-0.25 -0.6 128.95 120.05"
   id="svg2"
   inkscape:version="0.91 r13725"
   sodipodi:docname="shaymin.svg">
  <metadata
     id="metadata168">
    <rdf:RDF>
      <cc:Work
         rdf:about="">
        <dc:format>image/svg+xml</dc:format>
        <dc:type
           rdf:resource="http://purl.org/dc/dcmitype/StillImage" />
        <dc:title></dc:title>
        <cc:license
           rdf:resource="" />
      </cc:Work>
    </rdf:RDF>
  </metadata>
  <defs
     id="defs166" />
  <sodipodi:namedview
     pagecolor="#ffffff"
     bordercolor="#666666"
     borderopacity="1"
     objecttolerance="10"
     gridtolerance="10"
     guidetolerance="10"
     inkscape:pageopacity="0"
     inkscape:pageshadow="2"
     inkscape:window-width="1600"
     inkscape:window-height="841"
     id="namedview164"
     showgrid="false"
     inkscape:zoom="1.3906433"
     inkscape:cx="106.55895"
     inkscape:cy="88.588562"
     inkscape:window-x="-4"
     inkscape:window-y="0"
     inkscape:window-maximized="1"
     inkscape:current-layer="svg2" />
  <g
     id="g4"
     transform="matrix(-1,0,0,1,128.0793,2.6217228e-7)"
     style="opacity:0.5">
    <path
       d="m 126.95,48.65 q -1.85,6.9 -6.95,13.55 -4.95,6.5 -10.6,9.6 l -4.4,5.1 -0.3,7.4 q -0.45,8.05 -1.35,11.45 0.6,2.6 -0.05,4.25 -1.3,3.3 -7.5,-1.35 l -1.1,-8.8 q -8.6,9.05 -10.95,10.6 l -7.15,4.85 1,1.3 q 0.9,1.5 0.3,2.35 -0.75,1.15 -4.5,1.65 -4.1,0.55 -9.45,-0.05 l -4.3,0.75 1.35,2.4 q 0.95,2.55 -0.85,3.45 -3,1.5 -12.75,-0.9 -11.25,-2.7 -16.45,-8.6 Q 32,101.7 34.5,93 q 5,-17.35 12.2,-30.95 7.2,-13.6 27.6,-22.25 10.25,-4.3 19,-5.9 15.45,-1.4 18.4,-7.5 l 1.55,4.9 q 1.95,5.1 4.1,6.05 l 3.7,1.7 2.5,0.65 1.7,0.1 q 1.1,0.1 1.7,0.65 1.75,1.7 0,8.2"
       id="path6"
       inkscape:connector-curvature="0"
       style="fill:#ffffff" />
    <path
       d="m 120.75,61.15 q -1.95,3.5 -5.45,6.55 -2,1.75 -5.55,4.1 -1.35,1.2 -8.15,9.4 l -6.55,7.9 Q 94,82.3 96.6,77 q 2.45,-5.05 7,-6.4 13,-3.85 17.15,-9.45"
       id="path8"
       inkscape:connector-curvature="0"
       style="fill:#dbdcdc" />
    <path
       d="m 104.95,86.15 q -1.8,0 -3.6,1.85 -1.65,1.8 -2.5,4.35 -2.1,6.35 2.65,8.75 l -2,-0.25 q -2.35,-0.7 -3.8,-3 L 94.95,89.8 q 4.7,-5.5 5.7,-7.2 l 2.6,-3.65 1.9,-2.4 -0.2,9.6"
       id="path10"
       inkscape:connector-curvature="0"
       style="fill:#dbdcdc" />
    <path
       d="m 48.85,97.85 q 2.35,-2.4 4.2,-5.15 l 1.4,-2.2 23.85,-5.35 q -0.3,5.4 2.7,10.75 1.5,2.7 3.05,4.3 -3.9,3.55 -7.35,5.3 0.65,0.45 1.15,1.6 0.55,1.2 0.4,1.75 -0.6,2 -7.2,2 l -6.5,-0.45 -4.75,0.9 q 2.4,3.85 0.6,5.25 -3.7,2.9 -15.25,-0.8 -11.35,-3.65 -13.9,-8 9.95,-2.1 17.6,-9.9"
       id="path12"
       inkscape:connector-curvature="0"
       style="fill:#dbdcdc" />
    <path
       d="m 87,5.3 q 7.6,-1.3 14.15,0.65 6.25,1.85 5.6,4.1 -0.35,1.15 -1.95,1.9 4.2,2.45 6.65,6 3.5,5 0.4,9.05 -2.9,3.9 -10.9,5.9 L 93.5,34.15 76.15,57.7 q -18.1,25.1 -21.75,32.55 -4.35,9 -13.8,14.05 -9.4,5 -17.4,2.65 -6.65,-1.95 -8.8,-8.35 -0.7,-2 -0.85,-4.15 l 0,-1.8 q -0.5,1.6 -2.45,3.65 -2.25,2.4 -3.95,1.95 -3,-0.8 -3,-9.05 0,-7.4 1.95,-13.05 Q 2.7,77.45 1.95,76.9 0.45,75.9 1,69.4 1.5,63.45 5.45,57 8.85,51.5 13.1,48.25 12.25,48.8 9.25,48.8 5.7,48.85 5.3,47.1 4.15,42.4 12.6,36.2 q 7.8,-5.75 13,-5.95 -0.3,-0.7 -1.85,-1.6 Q 22.3,27.8 20.6,27.3 19.1,26.85 18.45,26 q -0.6,-0.75 -0.25,-1.35 1.1,-1.7 5.5,-1.4 4,0.25 5.15,1.3 -0.15,-5.05 0.8,-8 0.95,-3.05 2.35,-3.1 1.35,-0.05 1.85,3.15 l 1.1,5.75 q 1.35,-4.3 3.6,-7.75 2.8,-4.35 7.45,-8.05 4.45,-3.6 6.45,-3.05 1.5,0.4 1,2.35 l -2.05,8.3 q 1.35,-3 5.7,-6.4 Q 63.6,2.65 72.9,1 81.95,-0.6 80.85,3.6 80.3,5.75 77.95,8.15 81.55,6.25 87,5.3"
       id="path14"
       inkscape:connector-curvature="0"
       style="fill:#8bc56c" />
    <path
       d="m 19.55,98.2 q 4.7,1.5 10.45,0.55 15,-2.45 24.35,-18.2 l -0.7,3.15 q -0.5,3.75 0.6,6.85 -3.1,5.35 -8.5,10.1 -10.85,9.5 -22.55,6.65 -5.45,-1.3 -7.85,-5.85 -1.8,-3.45 -1.45,-7.4 1.2,2.75 5.65,4.15"
       id="path16"
       inkscape:connector-curvature="0"
       style="fill:#78ab5e" />
    <path
       d="m 4.45,85.45 0.3,2.05 q 0.5,2.3 1.4,3.75 2.9,4.75 8.8,-0.8 l -2.3,3.75 q -2.8,3.75 -5.5,3.8 -2,0.05 -2.65,-4.45 -0.55,-3.7 -0.05,-8.1"
       id="path18"
       inkscape:connector-curvature="0"
       style="fill:#78ab5e" />
    <path
       d="m 0.75,70.55 q 0.4,1.6 1.85,2.4 2.95,1.6 8.25,-2.4 L 8,74.1 Q 4.7,77.55 2.35,76.95 0.95,76.6 0.6,73.85 0.35,71.55 0.75,70.55"
       id="path20"
       inkscape:connector-curvature="0"
       style="fill:#78ab5e" />
    <path
       d="m 5.15,44.75 q 0.85,0.8 2.9,1.15 4.05,0.75 9.9,-1.3 l -4.75,3.75 -4.9,0.4 q -4.6,-0.3 -3.15,-4"
       id="path22"
       inkscape:connector-curvature="0"
       style="fill:#78ab5e" />
    <path
       d="M 25.75,30.45 Q 24.8,28.9 22.4,28.05 19.55,27.05 18.45,26 16.85,24.5 20.6,23.8 l -0.2,0.65 q 0.35,0.9 3.15,2.1 1.7,0.75 2.65,2 0.85,1.2 0.4,1.95 l -0.85,-0.05"
       id="path24"
       inkscape:connector-curvature="0"
       style="fill:#78ab5e" />
    <path
       d="m 34,83.55 q -4.95,0 -9.7,-1.5 -3.9,-1.25 -4.05,-1.95 -0.05,-0.35 0.9,-1.3 l 0.95,-0.9 q 11.65,5.45 23,0.9 7.2,-2.95 12.15,-8.6 Q 49.1,83.6 34,83.55"
       id="path26"
       inkscape:connector-curvature="0"
       style="fill:#78ab5e" />
    <path
       d="m 85.05,33.55 q 12.45,-1.6 20.6,-6.35 7.05,-4.1 6.2,-7.9 l 0.75,1.8 q 0.75,3.9 -2.4,7.1 -3.1,3.2 -11.55,5.15 l -7.8,1.3 q -3.3,-1.3 -5.8,-1.1"
       id="path28"
       inkscape:connector-curvature="0"
       style="fill:#78ab5e" />
    <path
       d="m 96.75,15.15 q -1.2,0.2 -1.25,-0.25 -0.05,-0.55 2.1,-1.65 5.05,-2.55 6.4,-3.8 1.5,-1.5 -0.25,-2.6 l 1.6,0.85 q 1.55,1.15 1.35,2.5 -0.25,1.4 -4.35,3.15 -3.35,1.4 -5.6,1.8"
       id="path30"
       inkscape:connector-curvature="0"
       style="fill:#78ab5e" />
    <path
       d="M 72.7,11.25 Q 74.55,8.35 76.6,6.05 79.7,2.6 81.1,3.3 L 80.4,5.2 Q 79.25,7.4 76.85,8.7 L 72.7,11.25"
       id="path32"
       inkscape:connector-curvature="0"
       style="fill:#78ab5e" />
    <path
       d="M 51.4,14.05 51.15,15.3 Q 47.5,17.6 49.1,12.85 50.5,8.7 53.35,4.8 53,9.2 51.4,14.05"
       id="path34"
       inkscape:connector-curvature="0"
       style="fill:#78ab5e" />
    <path
       d="m 33.4,16.15 1.45,5.8 -0.1,1.6 q -1.4,3.15 -1.5,-1.8 l 0.15,-5.6"
       id="path36"
       inkscape:connector-curvature="0"
       style="fill:#78ab5e" />
    <path
       d="m 40.25,80.25 q -6.9,1.6 -11.7,-0.1 l -6.1,-2.35 -2.9,-1.25 q 2.55,-7.95 4.2,-12.15 3,-7.6 8.1,-10.4 7.8,-4.3 16.85,-3.25 4.55,0.5 7.55,1.85 l 24.2,11.7 q 3.85,10.1 -2.2,20.85 -4.4,7.8 -9.55,10.75 l -8.15,5.2 q 0,-0.6 -3.25,-5.5 -3.35,-5.05 -3.7,-9.8 -0.35,-4.8 1.95,-10.85 l 2.4,-5.15 q -8,8.25 -17.7,10.45"
       id="path38"
       inkscape:connector-curvature="0"
       style="fill:#009f50" />
    <path
       d="m 42.25,80 q -10.1,2.55 -21,-2.15 13,-1.05 19.75,-2.75 7.95,-2.05 15.7,-6.95 L 59.45,67.4 Q 52.9,77.35 42.25,80"
       id="path40"
       inkscape:connector-curvature="0"
       style="fill:#008c46" />
    <path
       d="m 57.3,86.8 q 2.55,6.35 7.75,11.55 l -4.4,3 L 57.1,96 q -3.55,-5.8 -3.6,-7.9 -0.05,-1.85 0.75,-6.8 l 0.85,-6.25 q -0.25,5.9 2.2,11.75"
       id="path42"
       inkscape:connector-curvature="0"
       style="fill:#008c46" />
    <path
       d="m 91.9,46.15 q -2.3,3.05 -5.3,4.4 5.2,1.5 7,8.25 0.9,3.5 1.05,7.65 L 88.95,66.1 83.6,65.65 q -4.2,-1 -5.65,-3.55 l 0.65,2.95 q 0.35,3.45 -1.15,5.9 L 73.3,76.4 Q 70.9,79.3 70.85,80.35 68.65,78.15 66.65,75 62.7,68.7 64,64.1 q -3.05,3 -5.95,3.55 l -4.65,0.25 -3.55,0.3 q 0.45,-4.35 1.05,-7.55 1.15,-6.05 5.55,-8 -4.4,-1.3 -6.95,-4.9 Q 47.25,43.6 46,42 l 3.3,-1.45 q 2.45,-1.1 4.2,-1.4 5.6,-1.1 10.2,3.55 -2.05,-7.85 3.85,-13.6 1.35,-1.3 4.25,-3.4 2.05,-1.45 2,-1.95 l 3.05,5.45 q 0.85,1.5 1.45,4.2 0.7,3.15 0.2,4.9 2.55,-5.05 8.65,-4.65 3.25,0.25 8.25,1.4 l -0.5,2.15 -0.7,4.05 q -0.25,2.2 -2.3,4.9"
       id="path44"
       inkscape:connector-curvature="0"
       style="fill:#f3b2c1" />
    <path
       d="m 65.8,62 -2.45,2.55 q -2.95,2.7 -5.5,3.25 l -4.55,0.25 -3.7,0.25 q 0.65,-1.6 0.65,-4.05 0,-2.5 0.2,-3.05 0,2.8 5.25,3.35 5.45,0.5 10.1,-2.55"
       id="path46"
       inkscape:connector-curvature="0"
       style="fill:#d29aa8" />
    <path
       d="m 64.2,69.05 q 3.2,3.25 7.5,3 3.95,-0.2 6.55,-3.1 -1.15,3.25 -2.3,4.6 l -2.9,3.4 q -2.15,2.6 -2.2,3.4 l -2.95,-3.5 q -3.1,-4.2 -3.7,-7.8"
       id="path48"
       inkscape:connector-curvature="0"
       style="fill:#d29aa8" />
    <path
       d="m 84.2,65.65 q -4.5,-1.05 -6.7,-4.3 6.65,3.25 11.95,1.6 4.75,-1.45 4.25,-5.1 l 0.35,2.95 q 0.3,3.65 0.95,5.35 L 90.05,66 84.2,65.65"
       id="path50"
       inkscape:connector-curvature="0"
       style="fill:#d29aa8" />
    <path
       d="M 82.75,23.9 80.9,24.15 Q 80.1,24 79.6,23.45 78.9,22.7 79.1,21.5 q 0.2,-1.35 1.5,-1.9 2.4,-1.15 3.45,0.8 0.5,0.8 0.1,1.9 -0.45,1.1 -1.4,1.6"
       id="path52"
       inkscape:connector-curvature="0"
       style="fill:#fcd13e" />
    <path
       d="m 52.55,26.45 q -0.7,-0.5 -0.65,-1.9 0.05,-1.55 1.15,-2.35 2.45,-1.85 3.95,-0.5 0.75,0.65 0.45,2 -0.35,1.35 -1.4,2.1 -1.2,0.85 -1.85,1 -0.8,0.2 -1.65,-0.35"
       id="path54"
       inkscape:connector-curvature="0"
       style="fill:#fcd13e" />
    <path
       d="m 41.15,46.35 q -0.3,1.3 -0.9,1.45 l -1.6,-0.05 q -1,-0.4 -0.85,-1.7 0.1,-0.95 1.35,-1.5 L 40.8,44.4 q 0.65,0.55 0.35,1.95"
       id="path56"
       inkscape:connector-curvature="0"
       style="fill:#fcd13e" />
    <path
       d="m 29.1,92.15 q -0.75,-0.6 -0.5,-1.9 0.3,-1.5 2.05,-2.65 1.3,-0.8 2.5,-0.85 1.2,0 1.7,0.8 0.45,0.75 0.2,1.9 -0.35,1.45 -1.95,2.3 -2.75,1.5 -4,0.4"
       id="path58"
       inkscape:connector-curvature="0"
       style="fill:#fcd13e" />
    <path
       d="m 126.7,40.7 q 0.65,0.5 0.9,1.55 0.25,1.3 -0.35,2.8 -1.05,2.85 -2.2,2.55 -0.8,-0.2 -2.25,-2.25 -2.1,-3 1.45,-4.1 2.15,-0.7 2.45,-0.55"
       id="path60"
       inkscape:connector-curvature="0"
       style="fill:#0d131a" />
    <path
       d="m 110.35,70.65 2.8,-0.8 q -7.7,6.35 -11.2,11.75 -9.15,14.3 -22.3,22.6 -9.7,6.1 -19.5,8 -8.4,1.65 -17,0.2 -7.9,-1.35 -12.25,-4.45 -0.15,-0.15 0.5,-0.5 0.6,-0.4 0.8,-0.25 4.55,2.8 10.95,3.9 7.85,1.35 16.8,-0.35 9.9,-1.95 19.7,-8.25 12.75,-8.25 21.6,-22.1 2.85,-4.45 9.1,-9.75"
       id="path62"
       inkscape:connector-curvature="0"
       style="fill:#0d131a" />
    <path
       d="m 104.5,12.55 q -0.2,-0.1 0.1,-0.6 0.25,-0.5 0.45,-0.4 4.55,2.75 6.9,6.25 2.35,3.5 1.65,6.65 -0.8,3.6 -6.2,6.45 -6.15,3.2 -15.65,3.8 -0.2,0.05 -0.85,-0.4 -0.7,-0.45 -0.45,-0.45 8.85,-1 14.5,-3.4 6.1,-2.6 6.9,-6.2 0.65,-2.9 -1.25,-6 -1.95,-3.2 -6.1,-5.7"
       id="path64"
       inkscape:connector-curvature="0"
       style="fill:#0d131a" />
    <path
       d="M 105.85,9.5 Q 105.65,8.25 102.4,7.15 99.05,6 94.45,5.75 q -11.95,-0.6 -20.2,5.1 -1.55,1.1 -2,0.85 -0.4,-0.2 0.95,-1.3 8.25,-6.55 21.35,-5.9 5.2,0.25 8.9,1.65 3.65,1.4 3.95,3.2 0.3,1.85 -2.9,3.65 -2.7,1.5 -6.3,2.25 l -2.45,0.15 q -0.3,-0.35 1.8,-0.9 3.4,-0.85 5.9,-2.3 2.6,-1.55 2.4,-2.7"
       id="path66"
       inkscape:connector-curvature="0"
       style="fill:#0d131a" />
    <path
       d="m 81.3,1.15 q 1.15,1 0,3.3 -1.15,2.25 -3.7,4.2 L 77.05,8.5 Q 76.65,8.25 76.85,8.1 79.1,6.1 79.95,4.35 80.7,2.8 80,2.25 77.3,-0.15 67.45,3.05 56.6,6.6 52.1,13.9 q -1.1,1.85 -1.55,1.75 -0.4,-0.05 0.6,-1.9 4.35,-8.1 16,-12 4.65,-1.55 8.65,-1.7 4,-0.2 5.5,1.1"
       id="path68"
       inkscape:connector-curvature="0"
       style="fill:#0d131a" />
    <path
       d="m 53.1,2.75 q 1.15,0.4 1.05,2 L 53.2,8.8 q -1.05,3.15 -1.45,5.5 l -0.45,0.4 -0.45,-0.05 q 0.4,-3.05 1.3,-6.15 1.1,-3.7 0.05,-4.05 -2.6,-0.8 -8.15,4.35 -6.05,5.65 -8.3,12.75 -0.75,2.3 -1.2,2.4 -0.4,0.1 0.1,-2.1 1.7,-7.4 8.65,-14 6.5,-6.15 9.8,-5.1"
       id="path70"
       inkscape:connector-curvature="0"
       style="fill:#0d131a" />
    <path
       d="m 28.3,24.35 q -0.15,-6.6 1.5,-9.75 1.15,-2.05 2.35,-2 1.4,0.05 2.05,3.55 l 1.1,5.9 -0.35,0.45 -0.5,0.05 -0.95,-4.65 q -0.75,-3.75 -1.4,-3.65 -1.4,0.2 -2.2,4.05 -0.7,3.2 -0.65,6.55 -0.95,-0.2 -0.95,-0.5"
       id="path72"
       inkscape:connector-curvature="0"
       style="fill:#0d131a" />
    <path
       d="m 21.9,22.9 q 4.55,-0.25 6.9,1.25 1.65,1.05 1.45,1.5 -0.25,0.45 -1.75,-0.6 -2.05,-1.3 -5.8,-1.1 -3.65,0.25 -3.75,1.3 -0.05,0.7 2.9,2 3.45,1.45 4.35,2.85 0.15,0.2 -0.25,0.45 L 25.4,30.6 q -0.65,-0.95 -4.8,-2.6 -3.65,-1.45 -3.55,-2.85 0.2,-2 4.85,-2.25"
       id="path74"
       inkscape:connector-curvature="0"
       style="fill:#0d131a" />
    <path
       d="M 4.8,47.95 Q 2.35,44.7 9.65,37.85 17.2,30.8 25.3,30 q 1.9,-0.2 2.25,0.25 0.3,0.45 -1.45,0.55 -7.25,0.55 -14.75,7.35 -7.15,6.45 -5.25,8.95 0.75,1 3,1.05 2.1,0 4.3,-0.75 l 0.15,0.45 -0.3,0.6 q -2.3,0.9 -4.6,0.9 -2.75,0 -3.85,-1.4"
       id="path76"
       inkscape:connector-curvature="0"
       style="fill:#0d131a" />
    <path
       d="m 17,44.75 q 1.65,-1 1.7,-0.4 0,0.55 -1.75,1.65 Q 7,52.3 3,64.25 1.5,68.7 1.45,72.25 1.35,75.6 2.5,76 q 1.7,0.55 4.2,-1.35 2.6,-1.95 4.2,-5.25 0.95,-1.85 1.2,-1.25 0.25,0.65 -0.8,2.65 -1.85,3.65 -4.4,5.55 -2.5,1.85 -4.65,1.3 -1.9,-0.5 -2.2,-4.25 -0.3,-3.85 1.3,-8.9 Q 5.45,51.55 17,44.75"
       id="path78"
       inkscape:connector-curvature="0"
       style="fill:#0d131a" />
    <path
       d="m 5.9,75.65 0.65,-0.1 q 0.55,0.1 0.45,0.3 -2.2,4.2 -2.1,12.5 0.05,8.3 2.4,8.7 1.6,0.25 4.3,-2.95 2.75,-3.2 4.35,-7.3 0.75,-1.95 1.1,-1.35 0.3,0.6 -0.55,2.75 -1.85,4.7 -4.55,7.9 -2.85,3.35 -5,2.95 Q 3.55,98.5 3.45,89.35 3.3,80.6 5.9,75.65"
       id="path80"
       inkscape:connector-curvature="0"
       style="fill:#0d131a" />
    <path
       d="M 13.25,92.7 13.9,92 q 0.65,-0.5 0.6,-0.3 -0.75,5.15 1.6,9 2.25,3.75 6.95,5.4 7.05,2.45 15.4,-1.4 9.25,-4.3 15.35,-14.75 0.1,-0.2 0.6,0.15 l 0.45,0.55 Q 48.7,102 38.65,106.5 q -8.7,3.9 -16.2,1.3 Q 17.6,106.15 15.1,102.15 12.5,98 13.25,92.7"
       id="path82"
       inkscape:connector-curvature="0"
       style="fill:#0d131a" />
    <path
       d="m 79.3,63.8 0.55,-0.05 0.7,0.25 q 2.4,3.9 1.8,10.1 -0.55,6.35 -3.95,12.2 -3.15,5.55 -7.9,9.05 l -8.25,5.55 -1.75,1 q -0.35,-0.1 -1.05,-1.4 l -4.9,-7.7 q -2.1,-3.7 -1.6,-8.5 0.75,-7.25 2.8,-11.65 1.4,-3 4.6,-6.5 0.15,-0.15 0.5,0.25 l 0.3,0.5 q -2.9,3.2 -4.2,6.25 -1.75,4.1 -2.5,11.3 -0.45,4.25 1.8,8.15 l 4.6,7.55 7.95,-5.35 q 5.05,-3.7 8.1,-9.05 3.4,-5.9 4.05,-12.15 0.65,-6.15 -1.65,-9.8"
       id="path84"
       inkscape:connector-curvature="0"
       style="fill:#0d131a" />
    <path
       d="m 31.9,54.9 q -4.85,3.55 -7.7,10.4 -1.55,3.85 -3.65,10.95 l 5.95,2.45 q 5.25,1.7 10.15,1.4 5.45,-0.3 10.65,-2.95 6.8,-3.5 12.6,-10.75 l 0.55,0.2 q 0.4,0.3 0.25,0.45 -10.75,13.9 -24,14.65 -4.6,0.3 -9.65,-1.3 l -7.1,-2.55 Q 18.6,77.45 18.5,77.05 L 19,75.5 q 3.15,-8.95 4.65,-12.45 2.4,-5.7 7.3,-9.3 4.8,-3.6 13.25,-3.7 7.55,-0.1 12.2,2.3 l -0.3,0.45 -0.6,0.3 q -5,-2.35 -12.85,-1.5 -7.25,0.75 -10.75,3.3"
       id="path86"
       inkscape:connector-curvature="0"
       style="fill:#0d131a" />
    <path
       d="m 81.3,23.6 1.45,-0.35 q 0.75,-0.45 1,-1.5 0.2,-1 -0.25,-1.5 -0.55,-0.6 -1.55,-0.6 -0.85,0.05 -1.55,0.55 -0.6,0.5 -0.75,1.35 -0.2,0.95 0.25,1.55 0.4,0.5 1.4,0.5 m 0.65,-4.9 q 1.3,0.05 2.2,1.05 0.7,0.8 0.5,2.05 -0.2,1.35 -1.3,2.2 -0.75,0.5 -2.05,0.45 -1.4,-0.1 -2.05,-0.85 -0.75,-0.9 -0.6,-2.25 0.2,-1.3 1.1,-2 0.95,-0.7 2.2,-0.65"
       id="path88"
       inkscape:connector-curvature="0"
       style="fill:#0d131a" />
    <path
       d="m 55.05,21.8 q -1.05,0.3 -1.7,1.1 -0.7,0.8 -0.85,1.75 -0.15,0.85 0.25,1.25 0.55,0.55 1.55,0.35 0.95,-0.2 1.75,-0.95 0.75,-0.75 1,-1.85 0.2,-1.1 -0.3,-1.5 l -1.7,-0.15 m -2.5,0.4 q 1,-1.15 2.55,-1.35 1.4,-0.15 2.15,0.5 0.9,0.75 0.75,2.15 -0.2,1.45 -1.45,2.65 -0.9,0.9 -2.3,1 -1.35,0.1 -2.05,-0.6 -0.8,-0.9 -0.65,-2.15 0.15,-1.2 1,-2.2"
       id="path90"
       inkscape:connector-curvature="0"
       style="fill:#0d131a" />
    <path
       d="m 38.25,46.35 q 0.05,0.5 0.4,0.85 l 1.05,0.25 q 0.55,-0.05 0.85,-1.15 0.25,-1.1 -0.1,-1.35 -0.4,-0.3 -1.3,0.25 -0.95,0.55 -0.9,1.15 M 41,44.25 q 0.65,0.5 0.3,2.25 -0.4,1.85 -1.65,1.85 -0.85,0 -1.5,-0.5 -0.8,-0.6 -0.9,-1.55 -0.05,-1.2 1.5,-1.9 L 41,44.25"
       id="path92"
       inkscape:connector-curvature="0"
       style="fill:#0d131a" />
    <path
       d="m 29.2,90.2 q -0.3,1 0.05,1.45 0.45,0.55 1.55,0.35 1.05,-0.15 2.05,-0.85 1.1,-0.7 1.6,-1.75 0.45,-1 0.05,-1.55 -0.35,-0.5 -1.4,-0.5 -1.25,0 -2.6,0.95 -1,0.7 -1.3,1.9 m -0.65,2.1 q -0.7,-0.95 -0.3,-2.5 0.35,-1.6 1.6,-2.5 1.45,-1.1 3.25,-0.95 1.7,0.15 2.2,1.25 0.55,1.25 -0.1,2.65 -0.6,1.25 -1.85,2 -1.15,0.65 -2.6,0.7 -1.6,0.1 -2.2,-0.65"
       id="path94"
       inkscape:connector-curvature="0"
       style="fill:#0d131a" />
    <path
       d="m 124.95,39.3 q 2.15,0.35 2.8,1.95 0.7,1.75 -0.1,5.4 -1.7,7.9 -5.85,14.2 -5.65,8.65 -15,12.8 -2.65,1.2 -3.3,0.85 -0.7,-0.4 1.8,-1.45 9.55,-4.1 15.2,-12.65 4.2,-6.35 5.55,-13.8 0.95,-5.05 -1.15,-5.85 l -3.2,-0.85 q -2.45,-0.75 -4.75,-2.2 -2.15,-1.65 -4.1,-5.7 -1.65,-3.35 -1.8,-4.95 -0.05,-0.2 0.65,-0.75 0.65,-0.6 0.65,-0.35 0.3,2.2 1.7,5.45 1.65,3.85 3.5,5.25 l 2.65,1.45 q 1.75,0.7 4.75,1.2"
       id="path96"
       inkscape:connector-curvature="0"
       style="fill:#0d131a" />
    <path
       d="m 125.7,40.8 0.8,0.1 q 0.75,0.2 0.35,0.15 -1.5,-0.05 -2.75,0.65 -1.1,0.65 -1.5,1.6 -0.15,0.45 0.8,2.05 1.05,1.7 1.9,1.7 l 0.65,-0.5 0.55,-1.6 q 0.1,-0.25 0.35,0.15 l 0.2,0.65 q -0.45,2.3 -1.75,2.3 -1.45,0 -2.8,-2.25 -1.3,-2.25 -0.6,-3.3 0.8,-1.15 2.15,-1.55 l 1.65,-0.15"
       id="path98"
       inkscape:connector-curvature="0"
       style="fill:#0d131a" />
    <path
       d="m 104.3,77.1 q 0,-0.2 0.75,-0.65 0.75,-0.45 0.75,-0.25 0.15,8.2 -2,19.6 l 0.05,3.7 q -0.25,1.8 -1.5,2.2 -1.6,0.5 -3.8,-0.5 -2.15,-1 -3.05,-2.65 -0.1,-0.2 0.15,-0.6 0.3,-0.4 0.4,-0.2 0.75,1.2 2.55,2.1 1.85,0.95 3.05,0.55 1,-0.3 1.1,-2.1 l 0,-2.6 1.05,-8.35 q 0.55,-5.5 0.5,-10.25"
       id="path100"
       inkscape:connector-curvature="0"
       style="fill:#0d131a" />
    <path
       d="m 100.5,97.8 q -0.5,-1.2 -0.15,-1.35 0.3,-0.2 0.95,0.85 0.5,0.75 0.45,1.95 -0.05,1.25 -0.75,2.2 l -0.5,-0.1 q -0.35,-0.25 -0.2,-0.45 0.5,-0.65 0.5,-1.65 l -0.3,-1.45"
       id="path102"
       inkscape:connector-curvature="0"
       style="fill:#0d131a" />
    <path
       d="m 48.1,115.65 q 9.4,2.15 11.7,0.6 0.9,-0.6 0.55,-2.05 -0.35,-1.4 -1.35,-2.05 -0.2,-0.1 0.15,-0.55 0.35,-0.45 0.55,-0.35 1.35,0.95 1.95,2.85 0.75,2.25 -0.9,3.35 -3.05,2 -13.1,-0.45 -11.3,-2.7 -17.35,-8.95 -0.2,-0.15 0.35,-0.45 0.5,-0.35 0.65,-0.2 5.9,5.8 16.8,8.25"
       id="path104"
       inkscape:connector-curvature="0"
       style="fill:#0d131a" />
    <path
       d="m 58.4,114.3 q -1.05,-0.7 -0.6,-0.95 0.4,-0.25 1.55,0.5 1.05,0.7 1.3,1.75 0.3,1.05 -0.5,1.7 l -0.55,0 q -0.4,-0.1 -0.3,-0.3 0.55,-0.7 0.2,-1.5 -0.25,-0.65 -1.1,-1.2"
       id="path106"
       inkscape:connector-curvature="0"
       style="fill:#0d131a" />
    <path
       d="m 76.1,105.95 q -0.15,-0.15 0.2,-0.55 0.35,-0.4 0.55,-0.25 0.85,0.6 1.5,1.85 0.7,1.3 0.4,2.1 -0.6,1.65 -6.55,2.1 -4.8,0.4 -8.35,-0.1 l -0.2,-0.45 q 0.05,-0.45 0.25,-0.45 l 9.3,-0.35 q 3.6,-0.45 4,-1.25 0.25,-0.45 -0.1,-1.25 l -1,-1.4"
       id="path108"
       inkscape:connector-curvature="0"
       style="fill:#0d131a" />
    <path
       d="m 76.25,107.8 -0.3,-0.55 0.85,0.05 q 1,0.4 1.2,1.15 0.2,0.65 -0.3,1.3 l -0.55,0 q -0.45,-0.15 -0.35,-0.35 0.25,-0.25 0.1,-0.75 -0.15,-0.5 -0.65,-0.85"
       id="path110"
       inkscape:connector-curvature="0"
       style="fill:#0d131a" />
    <path
       d="m 94.7,81.65 q -0.35,8.2 0.45,13.55 0.4,2.7 0.85,3.7 2.8,5.35 -2.95,4.85 -5.3,-0.4 -9.3,-3.7 -2.85,-2.35 -4.3,-7.7 L 78.55,87.5 94.7,81.65"
       id="path112"
       inkscape:connector-curvature="0"
       style="fill:#ffffff" />
    <path
       d="m 84.95,100.9 q -6.25,-4.15 -6.2,-12.3 2.25,6.75 7.8,10.25 4.8,3.1 10.3,2.75 l -0.1,0.85 q -0.6,0.9 -2.8,1.1 -4.35,0.4 -9,-2.65"
       id="path114"
       inkscape:connector-curvature="0"
       style="fill:#dbdcdc" />
    <path
       d="m 93.95,83.15 q 0.2,-1.7 0.75,-1.6 0.5,0.05 0.55,1.95 0,3.55 0.3,7.85 0.35,5.3 0.9,7.3 1.45,2.3 0.8,3.9 -0.7,1.75 -3.75,1.8 -4.85,0.05 -9.2,-3.1 -5.65,-4.1 -6.2,-11.6 -0.15,-2.1 0.5,-2.25 0.6,-0.2 0.8,1.85 0.7,6.9 5.55,10.85 4,3.2 8.5,3.15 2,-0.05 2.5,-1.45 0.45,-1.3 -0.45,-2.65 -0.4,-0.55 -1.1,-6.4 -0.75,-6.4 -0.45,-9.6"
       id="path116"
       inkscape:connector-curvature="0"
       style="fill:#0d131a" />
    <path
       d="m 93.15,101.3 q -0.3,-1.15 0.05,-1.2 0.35,-0.1 0.8,0.85 0.6,1.25 -0.1,2.85 -0.05,0.2 -0.5,0.2 -0.45,0 -0.4,-0.2 0.4,-1.4 0.15,-2.5"
       id="path118"
       inkscape:connector-curvature="0"
       style="fill:#0d131a" />
    <path
       d="m 72.9,23.85 q 0.95,-0.9 1.15,-0.85 l 0.65,1.15 q 0.75,2 3.3,6.35 1.95,4.35 0.75,8.95 -0.35,1.45 -0.7,1.5 Q 77.7,41 77.9,39.55 78.6,35.1 76.55,30.2 l -2.9,-5.55 q -4.4,3.2 -6.75,5.95 -4.4,5.1 -2.45,12.25 -0.85,0.3 -0.95,0 -2.55,-6.9 1.55,-12 2.35,-2.9 7.85,-7"
       id="path120"
       inkscape:connector-curvature="0"
       style="fill:#0d131a" />
    <path
       d="m 94.45,34.5 1.45,0.15 q 0.25,0.2 -0.05,1.45 l -1.9,8.25 q -1.6,3.95 -6.75,6.55 -1.7,0.85 -1.95,0.55 -0.3,-0.3 1.3,-1.25 4.65,-2.7 6.25,-7.1 1.15,-5.05 1.85,-7.45 -4.1,-1.1 -7.45,-1.3 -6.5,-0.4 -8.6,5.05 l -0.2,-0.6 q -0.15,-0.75 0,-1.05 2.9,-5.3 8.65,-4.85 3.05,0.3 7.4,1.6"
       id="path122"
       inkscape:connector-curvature="0"
       style="fill:#0d131a" />
    <path
       d="m 86.25,50.95 0.1,-0.45 0.4,-0.3 q 6,2 7.5,7.8 0.8,3.05 0.9,7.65 0.35,1.2 0.05,1.25 l -1.9,-0.25 q -5.65,0.2 -8.55,-0.2 -5.15,-0.65 -7.75,-4.9 -1.2,-2 -0.7,-2.05 0.45,-0.1 1.8,1.9 2.3,3.4 8.35,3.85 l 7.6,0.35 Q 93.7,61.25 92.9,58.3 91.45,52.8 86.25,50.95"
       id="path124"
       inkscape:connector-curvature="0"
       style="fill:#0d131a" />
    <path
       d="m 77.25,61.75 0.5,0 q 0.55,0.05 0.6,0.25 2.6,5.8 -0.8,10.55 l -3.15,3.7 q -1.95,2.2 -2.65,3.8 l -0.7,1.35 q -0.3,0.05 -1.1,-1.1 -3.4,-3.85 -4.9,-6.3 -2.55,-4.3 -1.45,-10.05 0.05,-0.2 0.5,-0.25 l 0.5,0.15 q -0.9,5.25 2.1,9.8 1.6,2.4 4.1,5.3 4,-4.85 5.7,-7.5 2.95,-4.6 0.75,-9.7"
       id="path126"
       inkscape:connector-curvature="0"
       style="fill:#0d131a" />
    <path
       d="m 66.25,61.4 q 0.25,0.35 -0.85,1.8 -3.35,4.35 -7.6,5 l -7.2,0.25 -1.45,-0.05 q -0.25,-0.2 0.15,-1.1 0.35,-0.8 0.5,-3.05 l 0.4,-4.15 q 1.05,-5.55 5.85,-7.65 0.2,-0.1 0.65,0.25 l 0.25,0.4 q -4.3,1.9 -5.4,7.25 -0.55,2.8 -1,7.1 2.05,-0.15 6.4,-0.15 4.05,-0.7 7.8,-4.85 1.2,-1.35 1.5,-1.05"
       id="path128"
       inkscape:connector-curvature="0"
       style="fill:#0d131a" />
    <path
       d="m 46.45,40.95 q 7.35,-2.6 7.7,-2.65 5.45,-0.8 9.65,3.75 1.85,2 1.7,2.65 -0.1,0.65 -1.8,-1.35 -4.15,-4.8 -10.35,-3.6 -1.95,0.35 -4.25,1.35 l -2.35,1.05 q 0.9,0.8 3.4,4.9 3.05,4 7.2,5.45 1.75,0.6 1.3,0.9 -0.5,0.35 -2.35,-0.3 -4.65,-1.35 -7.1,-4.85 -1.9,-3.75 -3.05,-4.9 -1.25,-1.3 -1.2,-1.55 0,-0.3 1.5,-0.85"
       id="path130"
       inkscape:connector-curvature="0"
       style="fill:#0d131a" />
    <path
       d="m 71.3,48 q -0.5,0 -0.5,-1.55 0.05,-1.6 0.55,-1.6 0.5,0 0.5,1.55 -0.05,1.55 -0.55,1.6"
       id="path132"
       inkscape:connector-curvature="0"
       style="fill:#0d131a" />
    <path
       d="m 65.8,48.95 q 1.2,0.45 1.05,0.8 L 65.5,49.9 q -1.25,-0.25 -1.1,-0.85 l 1.4,-0.1"
       id="path134"
       inkscape:connector-curvature="0"
       style="fill:#0d131a" />
    <path
       d="m 77.15,49 q -0.95,1 -1.25,0.7 -0.35,-0.3 0.55,-1.3 0.85,-1 1.3,-0.7 0.35,0.3 -0.6,1.3"
       id="path136"
       inkscape:connector-curvature="0"
       style="fill:#0d131a" />
    <path
       d="m 75.4,52.8 q 0.25,-0.4 1.3,0.5 1.05,0.9 0.7,1.25 -0.35,0.3 -1.3,-0.6 -0.9,-0.9 -0.7,-1.15"
       id="path138"
       inkscape:connector-curvature="0"
       style="fill:#0d131a" />
    <path
       d="m 71.45,55.75 q 0.4,0 0.35,1.4 -0.05,1.35 -0.5,1.25 -0.5,-0.1 -0.35,-1.4 0.1,-1.3 0.5,-1.25"
       id="path140"
       inkscape:connector-curvature="0"
       style="fill:#0d131a" />
    <path
       d="m 67.6,53.5 q 0.25,0.35 -0.75,1 -1,0.7 -1.25,0.35 -0.25,-0.3 0.75,-0.95 1,-0.7 1.25,-0.4"
       id="path142"
       inkscape:connector-curvature="0"
       style="fill:#0d131a" />
    <path
       d="m 110.5,57.9 4.15,0.25 q 3.2,-0.3 5,-1.8 -0.75,2.8 -3.65,6.4 -2.95,3.7 -4.55,3.5 -1.35,-0.15 -1.3,-4.25 l 0.35,-4.1"
       id="path144"
       inkscape:connector-curvature="0"
       style="fill:#ed8599" />
    <path
       d="m 110.3,59.95 0.35,-2.3 4.6,0.35 q 2.8,-0.3 4.5,-1.55 -1.75,3.5 -4.2,6.8 0.05,-0.9 -1.65,-2.05 -1.75,-1.2 -3.6,-1.25"
       id="path146"
       inkscape:connector-curvature="0"
       style="fill:#922f00" />
    <path
       d="m 110.05,62.5 0.2,-2.75 q 2.05,0.15 3.85,1.7 l 1.4,1.55 q -1.3,-0.9 -2.85,-1.05 -1.55,-0.15 -2.6,0.55"
       id="path148"
       inkscape:connector-curvature="0"
       style="fill:#ce7486" />
    <path
       d="m 111.55,65.3 q 1.7,0.2 4.4,-3.35 1.9,-2.45 2.8,-4.4 -3.5,1.5 -7.85,0.9 -0.4,2.85 -0.2,4.85 0.2,1.95 0.85,2 m 9.2,-8.9 -0.65,0.45 q -1.15,3.5 -4.15,6.9 -3.1,3.6 -4.65,3.2 -1.45,-0.4 -1.7,-3.5 -0.2,-2.15 0.2,-4.85 0.1,-0.95 0.3,-1.1 l 1.25,-0.1 4.55,-0.25 q 2.9,-0.55 4.65,-1.7 1.5,-0.95 1.65,-0.5 0.1,0.4 -1.45,1.45"
       id="path150"
       inkscape:connector-curvature="0"
       style="fill:#0d131a" />
    <path
       d="m 110.35,60.1 q -0.15,-0.05 0,-0.35 l 0.25,-0.3 q 3.45,0.3 5.3,3.35 l -0.25,0.4 -0.5,0.05 q -0.6,-1 -1.95,-1.9 -1.45,-1.05 -2.85,-1.25"
       id="path152"
       inkscape:connector-curvature="0"
       style="fill:#0d131a" />
    <path
       d="m 100.4,41.45 1.5,-1.75 q 2.1,1.8 3.3,5.05 0.65,1.9 0.65,3.9 -0.05,2.35 -1.15,2.55 -2,0.35 -4,-3.95 -0.7,-1.45 -0.55,-3.8 l 0.25,-2"
       id="path154"
       inkscape:connector-curvature="0"
       style="fill:#009f50" />
    <path
       d="M 101.85,42.45 101.4,41.2 q -0.1,-0.7 0.2,-0.85 l 0.9,0.15 0.95,1.05 q 0.95,1.65 0.3,2.05 -0.7,0.4 -1.9,-1.15"
       id="path156"
       inkscape:connector-curvature="0"
       style="fill:#ffffff" />
    <path
       d="m 102.55,43.5 q 0.65,-0.15 1.45,2.35 l 0.45,1.85 -0.2,0.75 q -0.65,0.2 -1.45,-2.2 -0.4,-1.1 -0.45,-1.95 0,-0.7 0.2,-0.8"
       id="path158"
       inkscape:connector-curvature="0"
       style="fill:#0d131a" />
    <path
       d="m 102.2,38.65 q 0.9,-1.15 1.1,-0.7 0.25,0.45 -0.65,1.7 l -2.55,2.8 q -0.9,0.75 -1.15,0.5 -0.25,-0.25 0.6,-1.2 l 2.65,-3.1"
       id="path160"
       inkscape:connector-curvature="0"
       style="fill:#0d131a" />
    <path
       d="m 101.6,40.1 q -0.15,-0.15 0.15,-0.4 0.3,-0.25 0.5,-0.15 3.3,2.65 3.9,7.15 0.5,4.15 -1.25,4.8 -1.8,0.65 -3.75,-2.3 -2.1,-3.25 -1.15,-7.35 0.05,-0.2 0.45,-0.3 0.4,-0.05 0.35,0.15 -0.55,3.3 1.05,6.5 1.45,2.9 2.7,2.45 1.3,-0.45 0.45,-4.3 -0.85,-4.05 -3.4,-6.25"
       id="path162"
       inkscape:connector-curvature="0"
       style="fill:#0d131a" />
  </g>
</svg>
